REM GENRE AAAAAAAAA
REM DATE 9999
REM DISCID BBBBBBBB
REM DISCNUMBER 2
REM TOTALDISCS 6
REM COMMENT "CCCCCCCCCCCCCC"
REM CONDUCTOR "ALBUM CONDUCTOR"
SONGWRITER "ALBUM SONGWRITER"
PERFORMER "ALBUM PERFORMER"
TITLE "ALBUM TITLE"
FILE "DDDDDDDDDDD.wav" WAVE
  TRACK 01 AUDIO
    TITLE "TRACK TITLE 1"
    PERFORMER "TRACK PERFORMER 1"
    REM CONDUCTOR "TRACK CONDUCTOR 1"
    REM COMPOSER "TRACK COMPOSER 1"
    SONGWRITER "TRACK SONGWRITER 1"
    REM COMMENT "TRACK COMMENT 1"
    ISRC 1111111111
    INDEX 01 00:00:00
  TRACK 02 AUDIO
    TITLE "TRACK TITLE 2"
    PERFORMER "TRACK PERFORMER 2"
    REM CONDUCTOR "TRACK CONDUCTOR 2"
    REM COMPOSER "TRACK COMPOSER 2"
    SONGWRITER "TRACK SONGWRITER 2"
    REM COMMENT "TRACK COMMENT 2"
    ISRC 2222222222
    INDEX 00 04:15:61
    INDEX 01 04:16:60
  TRACK 03 AUDIO
    TITLE "TRACK TITLE 3"
    PERFORMER "TRACK PERFORMER 3"
    REM CONDUCTOR "TRACK CONDUCTOR 3"
    REM COMPOSER "TRACK COMPOSER 3"
    SONGWRITER "TRACK SONGWRITER 3"
    REM COMMENT "TRACK COMMENT 3"
    ISRC 3333333333
    INDEX 01 09:56:00
